<svg width="23" height="23" viewBox="0 0 23 23" fill="none" xmlns="http://www.w3.org/2000/svg">
<path d="M21.8598 16.4201V19.4201C21.8609 19.6986 21.8039 19.9743 21.6923 20.2294C21.5807 20.4846 21.4171 20.7137 21.2119 20.902C21.0067 21.0902 20.7644 21.2336 20.5005 21.3228C20.2367 21.412 19.9572 21.4452 19.6798 21.4201C16.6026 21.0857 13.6468 20.0342 11.0498 18.3501C8.63362 16.8148 6.58513 14.7663 5.0498 12.3501C3.35977 9.7413 2.30804 6.77109 1.9798 3.6801C1.95481 3.40356 1.98767 3.12486 2.0763 2.86172C2.16492 2.59859 2.30737 2.35679 2.49456 2.15172C2.68176 1.94665 2.9096 1.78281 3.16359 1.67062C3.41757 1.55843 3.69214 1.50036 3.9698 1.5001H6.9698C7.4551 1.49532 7.92559 1.66718 8.29356 1.98363C8.66153 2.30008 8.90187 2.73954 8.9698 3.2201C9.09642 4.18016 9.33125 5.12282 9.6698 6.0301C9.80434 6.38802 9.83346 6.77701 9.7537 7.15098C9.67395 7.52494 9.48866 7.86821 9.2198 8.1401L7.9498 9.4101C9.37335 11.9136 11.4463 13.9865 13.9498 15.4101L15.2198 14.1401C15.4917 13.8712 15.835 13.6859 16.2089 13.6062C16.5829 13.5264 16.9719 13.5556 17.3298 13.6901C18.2371 14.0286 19.1797 14.2635 20.1398 14.3901C20.6256 14.4586 21.0692 14.7033 21.3863 15.0776C21.7035 15.4519 21.872 15.9297 21.8598 16.4201Z" stroke="#28B872" stroke-width="2" stroke-linecap="round" stroke-linejoin="round"/>
</svg>
